<svg xmlns="http://www.w3.org/2000/svg" width="18" height="18" viewBox="0 0 18 18"><g><g><path fill="#444" d="M14.25 7.125a7.065 7.065 0 0 1-1.125 3.844l-.188.328L18 16.406 16.406 18l-5.062-5.11-.329.235c-1.25.781-2.547 1.172-3.89 1.172-1.969 0-3.65-.703-5.04-2.11C.696 10.781 0 9.093 0 7.125c0-1.969.695-3.648 2.086-5.04C3.476.696 5.156 0 7.125 0c1.968 0 3.648.696 5.039 2.086 1.39 1.39 2.086 3.07 2.086 5.039zM11.11 3.14C10.014 2.047 8.686 1.5 7.124 1.5c-1.563 0-2.891.547-3.985 1.64C2.046 4.236 1.5 5.563 1.5 7.126c0 1.563.546 2.89 1.64 3.984 1.094 1.094 2.422 1.64 3.985 1.64 1.562 0 2.89-.546 3.984-1.64 1.125-1.125 1.688-2.453 1.688-3.984 0-1.531-.563-2.86-1.688-3.984z"/></g></g></svg>